# xmcd
#
# Track frame offsets: 
#        150
#        3364
#        20789
#        22410
#        40733
#        58294
#        82776
#        86269
#        103280
#        119427
#        122035
#        139381
#        160871
#        165326
#        187453
#        200992
#        218461
#        234103
#        253047
#        270596
#        286169
#        287739
#        304536
#        324249
#
# Disc length: 4604 seconds
#
# Revision: 0
# Processed by: cddbd v1.5.2PL0 Copyright (c) Steve Scherf et al.
# Submitted via: ExactAudioCopyFreeDBPlugin 1.0
#
DISCID=5711fa18
DTITLE=Tech N9ne - All 6's and 7's
DYEAR=2011
DGENRE=Hip-Hop/Rap
TTITLE0=The Pledge (Intro)
TTITLE1=Technicians
TTITLE2=Military (Skit)
TTITLE3=Tech N9ne ft. B.o.B. and Hopsin - Am I A Psycho
TTITLE4=He's A Mental Giant
TTITLE5=Tech N9ne ft. Ceza, JL B. Hood, Uso, Yelawolf, Twista, Busta R
TTITLE5=hymes, D-Loc and Twisted Insane - Worldwide Choppers
TTITLE6=We Miss You Man Man (Skit)
TTITLE7=Tech N9ne ft. Kendrick Lamar and Oobergeek - I Love Music
TTITLE8=Strangeland
TTITLE9=Call From Richie (Skit)
TTITLE10=Tech N9ne ft. Stokley of Mint Condition and First Degree the D.
TTITLE10=E. - The Boogieman
TTITLE11=Tech N9ne ft. Liz Suwandi - Cult Leader
TTITLE12=Call From KC Poet Camile (Skit)
TTITLE13=Tech N9ne ft. Lil Wayne, T-Pain and Krizz Kaliko - Fuck Food
TTITLE14=Tech N9ne ft. Stevie Stone - Overtime
TTITLE15=Tech N9ne ft. Snoop Dogg, E-40 and Krizz Kaliko - Pornographic
TTITLE16=Tech N9ne ft. Jay Rock and Kutt Calhoun - You Owe Like Pookie
TTITLE17=Tech N9ne ft. Nikkiya Brooks - Delusional
TTITLE18=Tech N9ne ft. Blind Fury and Mackenzie O'Guin - So Lonely
TTITLE19=Tech N9ne ft. Stephen Carpenter and Chino Moreno - If I Could
TTITLE20=Angry Caller (Skit)
TTITLE21=Tech N9ne ft. Big Scoob - Love Me Tomorrow
TTITLE22=Mama Nem
TTITLE23=Tech N9ne ft. Nikkiya Brooks - Promiseland
EXTD=
EXTT0=
EXTT1=
EXTT2=
EXTT3=
EXTT4=
EXTT5=
EXTT6=
EXTT7=
EXTT8=
EXTT9=
EXTT10=
EXTT11=
EXTT12=
EXTT13=
EXTT14=
EXTT15=
EXTT16=
EXTT17=
EXTT18=
EXTT19=
EXTT20=
EXTT21=
EXTT22=
EXTT23=
PLAYORDER=
